<?xml version="1.0" encoding="utf-8"?>
<!-- Generator: Adobe Illustrator 27.0.0, SVG Export Plug-In . SVG Version: 6.00 Build 0)  -->
<svg version="1.1" id="Layer_1" xmlns="http://www.w3.org/2000/svg" xmlns:xlink="http://www.w3.org/1999/xlink" x="0px" y="0px"
	 width="200px" height="200px" viewBox="0 0 200 200" style="enable-background:new 0 0 200 200;" xml:space="preserve">
<style type="text/css">
	.st0{fill:#FFFFFF;}
</style>
<path class="st0" d="M162.5,78.8c-6-3.6-12.9-5.5-20.1-5.5c-0.6,0-1.3,0-1.9,0c-1.1,0.1-1.7-1.4-1.7-3.4c0-4.7-0.8-9.3-2.3-13.7
	c-0.7-1.8,0.2-3.2,2.2-2.8c2,0.3,3.9,0.8,5.8,1.5c3.9,1.4,7.5,3.4,10.5,6c4.9,4.2,8.3,9.7,9.9,16.2
	C165.2,79.1,164.2,79.8,162.5,78.8"/>
<path class="st0" d="M33.8,77.2c1.6-6.4,4.9-11.9,9.9-16.2c3-2.6,6.6-4.7,10.5-6c1.9-0.7,3.8-1.2,5.8-1.5c1.9-0.3,2.8,1,2.2,2.8
	c-1.6,4.4-2.4,9-2.3,13.7c0,1.9-0.7,3.4-1.7,3.4c-0.6,0-1.3,0-1.9,0c-7.1,0-14,1.9-20.1,5.5C34.4,79.8,33.3,79.1,33.8,77.2"/>
<path class="st0" d="M101.2,116.4c-0.6,0-1.3,0-1.9,0c-0.6,0-1.3,0-1.9,0c-1.1,0.1-1.7-1.4-1.7-3.4c0-0.2,0-0.4,0-0.6
	c0-1.9,0.7-3.4,1.7-3.4c0.6,0,1.3,0,1.9,0c0.6,0,1.3,0,1.9,0c1.1-0.1,1.7,1.4,1.7,3.4v0.6C102.9,115,102.3,116.5,101.2,116.4"/>
<path class="st0" d="M135.2,139.3c-1.9-4.2-4.6-8-7.9-11.3c-4.8-4.8-10.7-8.2-17.1-10c-1.9-0.5-3.6-2.4-3.7-4.3c0-0.5,0-1.1,0-1.6
	c0-1.9,1.8-3.8,3.7-4.3c6.4-1.8,12.3-5.2,17.1-10c4.8-4.8,8.2-10.6,10.1-17.1c0.5-1.9,1.8-3.5,3-3.6c0.7,0,1.4-0.1,2.2-0.1
	c7.4,0,14.6,2.3,20.6,6.5c1.6,1.1,2.8,2.4,2.8,2.6c0,0.2,0,0.3,0,0.4c0,9.1-3.2,19.6-9.2,30.4c-4.6,8.2-10.7,16.3-17.7,23.3
	C137.6,141.4,136,141,135.2,139.3"/>
<path class="st0" d="M97.1,105.6c-1.2-0.1-2.4-1.7-3-3.6c-1.5-5.3-4.1-10.2-7.7-14.5c-1.3-1.5-3.5-3.7-5-5
	c-4.3-3.6-9.2-6.2-14.5-7.7c-1.9-0.5-3.6-2.4-3.7-4.3c-0.1-4.9,0.8-9.8,2.6-14.3c0.7-1.8,3.1-3.2,5-2.9c12.5,1.7,24,10.4,26.2,27.1
	c0,1.8,3.7,2.4,4.3-0.1c2.2-16.7,13.8-25.3,26.2-27.1c1.9-0.3,4.3,1.1,5,2.9c1.8,4.5,2.7,9.4,2.6,14.3c0,1.9-1.8,3.8-3.7,4.3
	c-6.4,1.8-12.3,5.2-17.1,10c-4.8,4.8-8.2,10.6-10.1,17.1c-0.5,1.9-1.8,3.5-3,3.6c-0.7,0-1.4,0.1-2.2,0.1
	C98.6,105.6,97.8,105.6,97.1,105.6"/>
<path class="st0" d="M59.6,140.1c-6.9-7-13.1-15.1-17.7-23.3c-6-10.7-9.2-21.2-9.2-30.4v-0.4c0-0.3,1.2-1.5,2.8-2.6
	c6-4.2,13.2-6.5,20.6-6.5c0.7,0,1.4,0,2.2,0.1c1.2,0.1,2.4,1.7,3,3.6c1.8,6.4,5.2,12.3,10.1,17.1c4.8,4.8,10.7,8.2,17.1,10
	c1.9,0.5,3.6,2.4,3.7,4.3c0,0.5,0,1.1,0,1.6c0,1.9-1.8,3.8-3.7,4.3c-6.4,1.8-12.3,5.2-17.1,10c-3.3,3.3-6,7.1-7.9,11.3
	C62.6,141,60.9,141.4,59.6,140.1"/>
<path class="st0" d="M73.2,151.7c-1.6-1.1-1.4-2.6,0.4-3.5c3.9-1.9,7.4-4.4,10.5-7.5c4.8-4.8,8.2-10.6,10.1-17.1
	c0.5-1.9,1.8-3.5,3-3.6c0.7,0,1.4-0.1,2.2-0.1c0.7,0,1.4,0,2.2,0.1c1.2,0.1,2.4,1.7,3,3.6c1.8,6.4,5.3,12.3,10.1,17.1
	c3.1,3.1,6.6,5.6,10.5,7.5c1.8,0.9,2,2.4,0.4,3.5c-9.4,6.6-18.5,10.1-26.1,10.1C91.7,161.8,82.6,158.3,73.2,151.7"/>
<path class="st0" d="M47.4,162.1l-3,2.3l2.4,1.9l3-2.3l2.1,1.6l-3,2.3l1.4,1.1l-1.4,1.8l-1.8-1.5l-4.1,3l1.5,1.2l-1.4,1.8l-1.9-1.5
	l-2.8,2.1l-2.1-1.7l2.8-2.1l-2.5-2l-2.8,2.1l-2-1.6l2.8-2.1l-1.4-1.1l1.4-1.8l1.9,1.5l4.1-3l-1.5-1.2l1.4-1.7l2,1.6l3-2.3
	L47.4,162.1z M42.5,165.6l-4.3,3.2l2.7,2.1l4.3-3.2L42.5,165.6z"/>
<path class="st0" d="M59.7,175.8l2.1,1.1c-1.9,3.4-3.8,6.8-5.6,10.2l-2-1.1l0.8-1.7c-1.4,0.9-3.3,0.7-4.6,0c-3-1.6-4.2-4.8-2.3-8.3
	c1.9-3.4,5.3-4,8.2-2.4c1.4,0.8,2.5,2.2,2.5,3.7L59.7,175.8z M50.2,177.2c-1.2,2.1-0.4,4.2,1.4,5.2c4.4,2.4,8.1-4.3,3.7-6.7
	C53.5,174.6,51.3,175.1,50.2,177.2"/>
<path class="st0" d="M68.4,174.4l-2.2,6.3c1.2-1,3.2-1.1,4.5-0.6c3.2,1.1,4.9,3.9,3.6,7.7c-1.3,3.6-4.4,4.9-7.6,3.7
	c-1.5-0.5-2.7-1.6-3.1-3.3l-0.7,1.7l-2.2-0.8l5.5-15.5L68.4,174.4z M65,184.5c-0.8,2.2,0.3,4.1,2.3,4.8c1.9,0.7,4-0.2,4.7-2.4
	c0.8-2.3-0.3-4.1-2.2-4.8C67.9,181.5,65.8,182.4,65,184.5"/>
<path class="st0" d="M75.7,199.6l2.9-16.8l2.3,0.4l-0.2,1.9c1.1-1.2,2.9-1.7,4.4-1.4c3.4,0.6,5.4,3.5,4.8,7c-0.6,3.5-3.3,5.6-6.8,5
	c-1.4-0.2-3.1-1.1-3.7-2.6l-1.2,7L75.7,199.6z M87.4,190.2c0.4-2.2-0.8-3.9-3-4.3c-2.2-0.4-3.9,1-4.2,3c-0.3,2,0.9,3.9,3,4.3
	C85.2,193.6,87,192.4,87.4,190.2"/>
<rect x="86.1" y="187.1" transform="matrix(5.276670e-02 -0.9986 0.9986 5.276670e-02 -98.6729 272.6157)" class="st0" width="16.5" height="2.4"/>
<path class="st0" d="M108.3,184.7l2.4-0.2c0.2,3.9,0.5,7.7,0.7,11.6l-2.3,0.2l-0.2-1.9c-0.7,1.5-2.4,2.4-3.9,2.4
	c-3.4,0.2-6.1-1.8-6.4-5.7c-0.2-3.9,2.3-6.2,5.6-6.4c1.7-0.1,3.3,0.6,4.1,1.8L108.3,184.7z M101.1,190.9c0.2,2.4,1.9,3.8,4,3.6
	c5-0.3,4.5-8-0.5-7.7C102.5,187,100.9,188.6,101.1,190.9"/>
<path class="st0" d="M125.4,191.8c-1,1.5-2.3,2.3-3.9,2.7c-3.3,0.7-6.4-0.8-7.3-4.7c-0.8-3.9,1.4-6.6,4.7-7.3c1.6-0.3,3-0.1,4.5,0.8
	l-1.2,1.9c-0.9-0.5-1.9-0.7-2.8-0.5c-2.1,0.4-3.3,2.2-2.9,4.5c0.5,2.4,2.5,3.3,4.4,2.9c1-0.2,1.9-0.7,2.5-1.6L125.4,191.8z"/>
<path class="st0" d="M129,187.1c0.8,1.6,2.6,2.2,4.6,1.4c1.1-0.4,2.3-1.3,2.7-2.3l2,0.9c-0.7,1.7-2.3,3-4,3.6
	c-3.6,1.3-6.7-0.1-8-3.6c-1.2-3.3,0.2-6.5,3.7-7.8c3.5-1.3,6.7,0,7.9,4.6L129,187.1z M134.9,182.7c-0.8-1.7-2.4-2.1-4.2-1.5
	c-1.7,0.6-2.7,2-2.4,3.9L134.9,182.7z"/>
<path class="st0" d="M137.3,176.6c-1.7-3.4,0.7-6,3.4-7.6c2.7-1.5,6.2-2.1,8.1,1.2c2,3.5-0.3,5.9-3.2,7.6c-1.4,0.8-3.4,2.4-2.3,4.2
	l0.8,1.5l9.3-5.3l1.2,2.1l-11.5,6.5c-0.7-1.2-1.4-2.4-2.1-3.6c-1.9-3.3,0.6-5.9,3.4-7.5c1.3-0.7,3.2-2.4,2.2-4.2
	c-1-1.8-2.9-1.5-4.7-0.5c-1.7,1-3.2,2.6-2.3,4.3L137.3,176.6z"/>
<path class="st0" d="M149.8,163.3l4.3,5.1c-0.3-1.5,0.7-3.3,1.8-4.2c2.6-2.1,5.9-2.1,8.4,0.9c2.5,3,1.9,6.3-0.7,8.5
	c-1.2,1-2.8,1.5-4.4,1l1.1,1.5l-1.8,1.5l-10.5-12.7L149.8,163.3z M156.7,171.4c1.5,1.8,3.7,1.9,5.3,0.6c1.6-1.3,1.9-3.5,0.4-5.3
	c-1.5-1.8-3.7-1.9-5.2-0.6C155.6,167.5,155.3,169.7,156.7,171.4"/>
<path class="st0" d="M21.7,135.6c2.3,0.6,4.1,2.2,5.2,4.2c3,5.2,0.7,9.6-3,11.8c-3.8,2.2-8.9,1.9-11.8-3.3c-1.1-1.9-1.5-4.2-0.8-6.5
	l2.4,0.7c-0.4,1.6-0.1,3.2,0.6,4.6c2.1,3.6,5.7,3.8,8.4,2.2c2.6-1.5,4.3-4.6,2.2-8.3c-0.8-1.3-2.2-2.5-3.7-2.9L21.7,135.6z"/>
<polygon class="st0" points="19.2,122 12.7,124.1 15.4,132.4 21.9,130.3 22.8,132.8 7.1,138 6.3,135.5 13.1,133.2 10.3,124.9 
	3.5,127.2 2.7,124.7 18.4,119.5 "/>
<path class="st0" d="M7.7,101.3c4.4-0.5,8.8,1.8,9.4,7.5c0.6,5.7-3.2,8.8-7.6,9.3c-5,0.6-9-2.5-9.5-7.5
	C-0.5,105,3.3,101.8,7.7,101.3 M14.7,109.1c-0.4-4.1-3.5-5.5-6.7-5.1c-3,0.3-6,2.4-5.6,6.4c0.4,3.8,3.3,5.5,6.9,5.2
	C12.2,115.2,15.2,113.1,14.7,109.1"/>
<path class="st0" d="M9.6,81.5c4.4,0.5,8.2,3.6,7.6,9.3c-0.6,5.7-5.1,7.9-9.4,7.5c-5-0.5-8.2-4.4-7.7-9.4C0.7,83.3,5.1,81,9.6,81.5
	 M14.7,90.5c0.4-4.1-2.2-6.1-5.4-6.5c-3-0.3-6.4,1.1-6.9,5.1c-0.4,3.8,2,6.1,5.6,6.5C11,95.9,14.3,94.6,14.7,90.5"/>
<path class="st0" d="M9.2,66.8c-1.3,0.4-2.5,1.7-3,3.3c-0.7,2.1-0.3,3.9,1.2,4.4C9,75,10,73.4,10.9,71.4c1.5-3.1,3.4-5.9,6.9-4.8
	c3.5,1.1,3.8,4.8,2.8,8.1c-1,3-2.6,5-5.7,5.6L14.2,78c2.3-0.5,3.6-2.3,4.1-4.1c0.6-1.9,0.6-4.2-1.3-4.8c-1.7-0.5-2.9,1.1-3.9,3.2
	c-1.4,3-3.2,5.7-6.5,4.6c-3.3-1-3.5-4.7-2.6-7.5c0.7-2.3,2-4.4,4.5-5L9.2,66.8z"/>
<path class="st0" d="M29,55.2L23.3,66c-4.9-2.6-9.8-5.1-14.6-7.7l5.7-10.7l2.3,1.2l-4.4,8.4l3.9,2.1l4.3-8l2.2,1.1l-4.3,8l3.9,2.1
	l4.5-8.4L29,55.2z"/>
<path class="st0" d="M38.5,38.2l-6,6.6l1.5,3.5l-1.9,2.1l-7.2-16.6l1.9-2.1L44,37.3l-1.9,2.1L38.5,38.2z M27.8,34.6l3.5,7.9l4.7-5.2
	L27.8,34.6z"/>
<path class="st0" d="M56.8,28l-2.5,1.8l-7.4-1.6L44,30.2l3.4,4.6l-2.1,1.6l-9.8-13.3c2.1-1.5,4.1-3,6.2-4.5c3.1-2.3,6.3-1.3,7.9,0.9
	c1.4,1.9,1.8,4.5-0.6,6.8l7.2,1.5L56.8,28z M39.1,23.5l3.5,4.8l4.1-3c1.8-1.3,1.7-3,0.8-4.2c-0.9-1.2-2.6-1.9-4.3-0.6L39.1,23.5z"/>
<path class="st0" d="M64.3,10.5c-1.6-0.6-3.4-0.4-4.8,0.3c-3.5,1.6-4.3,5.2-2.8,8.3c1.3,2.7,4.1,4.6,8,2.8c1.3-0.6,2.3-1.5,3-3
	l-1.4-3l-4.2,1.9l-1-2.1l6.4-3l2.8,6.1c-0.7,2.3-2.2,4.2-4.7,5.3c-5.5,2.5-9.6,0-11.4-4c-2-4.3-0.9-9.3,4.2-11.6
	c2-0.9,4.4-1.1,6.6-0.3L64.3,10.5z"/>
<polygon class="st0" points="77,10.2 79.8,2 82.9,1.2 82.9,1.3 78.9,12.2 80.6,18.8 78,19.4 76.3,12.9 67.8,5.1 67.8,5 70.8,4.2 "/>
<polygon class="st0" points="90,0.5 91.1,14.5 99.7,13.9 99.9,16.3 88.6,17.2 87.3,0.7 "/>
<polygon class="st0" points="105.8,0.2 104.7,14.2 113.4,14.9 113.1,17.4 101.8,16.5 103.2,0 "/>
<path class="st0" d="M117.6,17.2c-0.4,2-3.3,1.4-2.9-0.6C115.1,14.6,118,15.2,117.6,17.2"/>
<polygon class="st0" points="134.3,6.2 129.1,19.3 137.2,22.5 136.3,24.7 125.7,20.6 131.8,5.2 "/>
<path class="st0" d="M155.4,26.8c-2.4,3.8-6.8,5.8-11.7,2.8s-4.9-8-2.6-11.7c2.7-4.2,7.6-5.5,11.8-2.8C157.6,18,157.8,23,155.4,26.8
	 M145,27.5c3.5,2.2,6.5,0.6,8.2-2c1.6-2.6,1.8-6.2-1.6-8.4c-3.3-2-6.4-0.8-8.3,2.2C141.8,21.8,141.5,25.3,145,27.5"/>
<polygon class="st0" points="158,40.4 156,38.5 162.4,21.7 164.6,23.8 159.2,37.1 172.3,31 174.4,33 "/>
<path class="st0" d="M171.1,56.3l-7.2-9.9c4.5-3.2,8.9-6.5,13.4-9.7l7.1,9.8l-2.1,1.5l-5.6-7.7l-3.6,2.6l5.3,7.4l-2,1.4l-5.3-7.4
	l-3.6,2.6l5.6,7.7L171.1,56.3z"/>
<path class="st0" d="M182.2,72.3L179,64l-3.8-0.2l-1-2.6l18.1,0.9l1,2.7l-12.7,12.9l-1-2.6L182.2,72.3z M190.2,64.4l-8.6-0.4
	l2.5,6.5L190.2,64.4z"/>
<path class="st0" d="M183.3,93.2l-0.6-3l4.7-6l-0.6-3.4l-5.6,1l-0.5-2.6l16.3-3c0.5,2.5,0.9,5,1.4,7.6c0.7,3.8-1.5,6.2-4.3,6.7
	c-2.3,0.4-4.8-0.4-5.9-3.5l-4.5,5.8L183.3,93.2z M195.1,79.2l-5.9,1.1l0.9,4.9c0.4,2.2,1.9,2.9,3.5,2.6c1.5-0.3,2.8-1.5,2.4-3.6
	L195.1,79.2z"/>
<path class="st0" d="M195.7,107.7c1.2-1.1,1.8-2.9,1.9-4.4c0.1-3.9-2.8-6.2-6.2-6.2c-3-0.1-6,1.6-6.1,5.9c0,1.4,0.3,2.7,1.4,4.1
	l3.4,0.1l0.1-4.6l2.4,0.1l-0.2,7.1l-6.8-0.2c-1.8-1.7-2.8-3.8-2.7-6.5c0.1-6.1,4.2-8.6,8.6-8.5c4.8,0.1,8.8,3.3,8.6,8.9
	c-0.1,2.2-0.9,4.4-2.7,6.1L195.7,107.7z"/>
<polygon class="st0" points="190.3,119.3 196.5,125.4 195.8,128.5 195.7,128.5 187.6,120 181,118.6 181.6,116 188.2,117.4 
	198.9,113.2 199.1,113.3 198.4,116.3 "/>
<polygon class="st0" points="193.2,135.2 180.2,129.9 176.9,137.9 174.6,137 178.9,126.5 194.2,132.7 "/>
<polygon class="st0" points="186.6,149.4 174.5,142.2 170,149.6 167.9,148.4 173.7,138.6 187.9,147.1 "/>
<path class="st0" d="M166.1,152.5c-1.6-1.2,0.2-3.6,1.8-2.4C169.5,151.3,167.7,153.7,166.1,152.5"/>
<polygon class="st0" points="120.7,134.9 121.6,132.6 119.3,133.6 "/>
<path class="st0" d="M131.6,140.1c-1.7-3.5-4.1-6.8-6.9-9.6c-2.8-2.8-5.9-5.1-9.4-6.8l-0.4,2.9l3.1-0.4l1.5,1.5l-5.2,5.2l-1.5-1.5
	l3.1-3.1l-2.9,0.2l-0.3-0.3l0.3-2.9l-3.1,3.1l0,0c1.7,3.5,4.1,6.8,6.9,9.7c2.8,2.8,6.1,5.1,9.6,6.9l0,0L131.6,140.1z M119.4,137.9
	l0.5-1.2l-2.3-2.3l-1.2,0.5l-1.6-1.6l7.5-2.9l1.5,1.5l-2.9,7.5L119.4,137.9z M126.2,144.5L126.2,144.5l-1.9-1.7l0.2-3.2l-1.7,1.7
	l-1.5-1.5l5.2-5.2l1.5,1.5l-1.7,1.7c1-0.1,2.1-0.2,3.1-0.3l1.8,1.8l-0.1,0.1l-4.6,0.3C126.4,141.2,126.3,143,126.2,144.5"/>
<path class="st0" d="M110.7,121.8c-1.8-0.6-3.1,0.6-2.4,2.4c0.3,0.8,0.6,1.6,0.9,2.3l3.9-3.9C112.3,122.3,111.5,122,110.7,121.8"/>
<path class="st0" d="M128.6,146c1.7,0.6,3.4,0.6,3.9,0.1c0.6-0.5,0.6-2.3,0-4L128.6,146z"/>
<path class="st0" d="M80,132.9l-0.8,0.8c-0.3,0.3-0.6,0.9-0.2,1.3c0.4,0.3,0.9,0.1,1.2-0.3c0.4-0.4,0.6-1.1,0.1-1.5L80,132.9z"/>
<path class="st0" d="M87.8,121.8c-5.2,1.7-10,4.7-14,8.7c-3.3,3.3-5.9,7.2-7.7,11.4c-0.8,1.8-0.7,3.7-0.1,4.2
	c0.6,0.5,2.6,0.5,4.4-0.3c4.2-1.8,8-4.4,11.2-7.6c4-4,6.9-8.7,8.7-14C90.9,122.4,89.7,121.2,87.8,121.8 M77.1,140.4l-2-1.9l-1.8,1.9
	l2,1.9l-1.4,1.5l-5.4-5l1.4-1.5l2,1.9l1.8-1.9l-2.1-1.9l1.4-1.5l5.4,5L77.1,140.4z M82.2,133.7c0.1,0.8-0.2,1.5-0.9,2.3
	c-0.9,1-2.3,1.7-3.6,0.5c-0.4-0.4-0.6-1.1-0.5-1.9c-0.6,0.2-1.3-0.1-1.6-0.4c-1.3-1.2-0.5-2.8,0.4-3.8c1-1.1,2.3-1.7,3.6-0.6
	l-1.3,1.4c-0.7-0.7-2,0.8-1.3,1.4c0.4,0.4,0.9,0.2,1.2-0.1l2.5-2.7l1.1,1l-0.5,0.5l0.4,0.4c0.3,0.3,0.7,0.3,1-0.2l1.3,1.2
	C83.6,133.5,83,134.1,82.2,133.7 M84.8,132l-5.4-5l1.4-1.5l4.1,3.8l2.4-2.6l1.3,1.2L84.8,132z"/>
<path class="st0" d="M76.3,91.9c-0.4,0.4-0.1,0.8,0.2,1.2c0.4,0.4,1.1,0.6,1.5,0.2l0.3-0.3l-0.8-0.8C77.3,91.8,76.8,91.5,76.3,91.9"
	/>
<path class="st0" d="M74.7,86.3c0.2-0.2,0.2-0.6,0-0.9l-1.2-1.2L72.7,85l1.2,1.2C74.2,86.5,74.5,86.5,74.7,86.3"/>
<path class="st0" d="M71.6,86.1l-1,1l1.2,1.2c0.4,0.4,0.7,0.3,1,0.1c0.3-0.3,0.3-0.7-0.1-1L71.6,86.1z"/>
<path class="st0" d="M90.3,101.3c-1.4-4.1-3.5-8-6.3-11.4c-1.2-1.5-3.5-3.7-5-5c-3.4-2.8-7.2-4.9-11.4-6.3c-1.8-0.6-3.1,0.6-2.4,2.4
	c1.7,5.2,4.7,10,8.7,14c4,4,8.7,6.9,14,8.7C89.7,104.4,90.9,103.2,90.3,101.3 M70.7,89.5l-2.7-2.7l5.2-5.2l2.6,2.6
	c1,1,1.4,2.4,0.4,3.3c-0.4,0.4-0.9,0.7-1.6,0.4c0.2,0.7,0,1.5-0.5,1.9C73.1,91.1,71.7,90.4,70.7,89.5 M79.5,95.7l-1.3,1.3
	c-0.6-0.4-1.1-1-0.7-1.9c-0.8,0-1.5-0.3-2.2-1c-1-1-1.6-2.3-0.4-3.6c0.4-0.4,1.2-0.6,1.9-0.4c-0.2-0.6,0.2-1.3,0.5-1.6
	c1.3-1.2,2.9-0.4,3.8,0.6c1,1,1.6,2.4,0.4,3.6L80,91.4c0.7-0.7-0.7-2-1.3-1.4c-0.4,0.4-0.2,0.9,0.1,1.2l2.6,2.6l-1,1l-0.5-0.5
	l-0.4,0.4C79.1,94.9,79,95.4,79.5,95.7 M86.3,97.9c0-0.7-0.3-1.2-0.6-1.6c-1-1-2.2-0.6-2.9,0.1c-0.7,0.7-1.1,1.8-0.1,2.8
	c0.3,0.4,1,0.7,1.7,0.7l-0.1,1.8c-1.2,0-2.1-0.5-2.9-1.3c-2-2-1.5-4.1-0.1-5.5c1.3-1.3,3.6-1.9,5.6,0.1c0.7,0.7,1.2,1.7,1.2,2.8
	L86.3,97.9z"/>
<path class="st0" d="M131,78.7c-5.2,1.7-10,4.7-14,8.7c-4,4-6.9,8.7-8.7,14c-0.6,1.8,0.6,3.1,2.4,2.4c5.2-1.7,10-4.7,14-8.7
	c4-4,6.9-8.7,8.7-14C134,79.3,132.8,78.1,131,78.7 M119.7,97.5c-1.7,1.7-3.9,1.8-5.6,0.1c-1.7-1.7-1.5-3.9,0.2-5.6
	c1.7-1.7,3.9-1.8,5.6-0.1C121.6,93.7,121.4,95.9,119.7,97.5 M123.2,93.8l-5.1-5.2l1.5-1.5l3.9,4l2.5-2.4l1.2,1.3L123.2,93.8z
	 M127.9,89.3l-5.1-5.3l1.5-1.4l5.1,5.3L127.9,89.3z"/>
<path class="st0" d="M115.5,93.3c-0.9,0.8-0.8,2,0,2.9c0.9,0.9,2,0.9,2.9,0.1c0.9-0.8,0.8-2,0-2.9C117.5,92.5,116.4,92.5,115.5,93.3
	"/>
</svg>
