<svg width="39" height="40" viewBox="0 0 39 40" fill="none" xmlns="http://www.w3.org/2000/svg">
<g clip-path="url(#clip0_3602_11747)">
<path d="M39 20C39 8.9543 30.2696 0 19.5 0C8.73044 0 0 8.9543 0 20C0 29.9824 7.13083 38.2566 16.4531 39.757V25.7813H11.502V20H16.4531V15.5938C16.4531 10.5813 19.3644 7.8125 23.8186 7.8125C25.9514 7.8125 28.1836 8.20312 28.1836 8.20312V13.125H25.7248C23.3025 13.125 22.5469 14.6668 22.5469 16.25V20H27.9551L27.0905 25.7813H22.5469V39.757C31.8692 38.2566 39 29.9824 39 20Z" fill="white"/>
</g>
<defs>
<clipPath id="clip0_3602_11747">
<rect width="39" height="40" fill="white"/>
</clipPath>
</defs>
</svg>
