<svg width="22" height="23" viewBox="0 0 22 23" fill="none" xmlns="http://www.w3.org/2000/svg">
<path fill-rule="evenodd" clip-rule="evenodd" d="M9.91995 2.63266C5.74468 2.63266 2.35995 6.08646 2.35995 10.3469C2.35995 14.6074 5.74468 18.0612 9.91995 18.0612C14.0952 18.0612 17.48 14.6074 17.48 10.3469C17.48 6.08646 14.0952 2.63266 9.91995 2.63266ZM0.199951 10.3469C0.199951 4.86918 4.55174 0.428574 9.91995 0.428574C15.2882 0.428574 19.64 4.86918 19.64 10.3469C19.64 15.8247 15.2882 20.2653 9.91995 20.2653C4.55174 20.2653 0.199951 15.8247 0.199951 10.3469Z" fill="white"/>
<path fill-rule="evenodd" clip-rule="evenodd" d="M15.2583 15.7942C15.68 15.3638 16.3639 15.3638 16.7856 15.7942L21.4836 20.5881C21.9054 21.0185 21.9054 21.7162 21.4836 22.1466C21.0619 22.577 20.378 22.577 19.9563 22.1466L15.2583 17.3527C14.8365 16.9224 14.8365 16.2246 15.2583 15.7942Z" fill="white"/>
</svg>
