<svg width="40" height="40" viewBox="0 0 40 40" fill="none" xmlns="http://www.w3.org/2000/svg">
<g clip-path="url(#clip0_3602_11749)">
<path d="M12.5836 36.25C27.6742 36.25 35.9305 23.7445 35.9305 12.9031C35.9305 12.5515 35.9227 12.1922 35.907 11.8406C37.5131 10.6791 38.8992 9.24042 40 7.59216C38.5042 8.25767 36.9161 8.6923 35.2898 8.88123C37.0021 7.85485 38.2842 6.24245 38.8984 4.34294C37.2876 5.2976 35.526 5.97102 33.6891 6.33435C32.4514 5.01927 30.815 4.14853 29.0328 3.85675C27.2506 3.56498 25.422 3.86842 23.8296 4.72016C22.2372 5.5719 20.9697 6.92451 20.2231 8.56885C19.4765 10.2132 19.2924 12.0577 19.6992 13.8172C16.4375 13.6535 13.2466 12.8062 10.3333 11.3302C7.42004 9.85415 4.84949 7.78239 2.78828 5.24919C1.74067 7.05541 1.42009 9.19274 1.89172 11.2268C2.36334 13.2609 3.59177 15.0391 5.32734 16.2C4.02438 16.1586 2.74996 15.8078 1.60938 15.1765V15.2781C1.60821 17.1736 2.2635 19.011 3.46385 20.4779C4.6642 21.9449 6.33554 22.9509 8.19375 23.325C6.98676 23.6552 5.71997 23.7033 4.49141 23.4656C5.01576 25.0957 6.03595 26.5215 7.40962 27.5439C8.78328 28.5663 10.4419 29.1343 12.1539 29.1687C9.24737 31.4518 5.65696 32.6902 1.96094 32.6844C1.30548 32.6833 0.650665 32.6432 0 32.564C3.75476 34.9729 8.12255 36.2523 12.5836 36.25Z" fill="white"/>
</g>
<defs>
<clipPath id="clip0_3602_11749">
<rect width="40" height="40" fill="white"/>
</clipPath>
</defs>
</svg>
